# Blender v2.79 (sub 0) OBJ File: 'PineTree.blend'
# www.blender.org
mtllib PineStump.mtl
o Pine1-2_Stump.001_Cylinder.024
v -0.041998 0.000000 -0.587513
v 0.411389 0.000000 -0.385363
v 0.653502 0.000000 0.009163
v 0.412414 0.000000 0.414403
v -0.151475 0.530769 -0.281940
v -0.041998 0.000000 0.595954
v 0.340528 0.530771 -0.285957
v -0.382969 0.000000 0.350133
v 0.101213 0.530768 -0.383633
v -0.574472 0.000000 0.009163
v -0.435864 0.000000 -0.405939
v -0.150395 0.530771 0.186613
v 0.312995 0.530772 0.178753
v 0.339511 0.530771 0.166531
v 0.094811 0.530772 0.273282
v 0.098039 0.530772 0.274340
v 0.419169 0.530772 -0.025260
v 0.434725 0.530772 -0.062842
v 0.315700 0.530772 -0.296073
v 0.098045 0.530775 -0.382431
v 0.419375 0.530772 -0.099091
v 0.081875 0.463940 -0.471556
v 0.379969 0.416684 -0.347136
v 0.503444 0.397109 -0.046760
v 0.379969 0.416684 0.253616
v 0.081875 0.463940 0.378036
v -0.216219 0.511197 0.253616
v -0.254745 0.530771 -0.047011
v -0.216219 0.511197 -0.347136
v 0.399592 0.530771 -0.345757
v 0.490912 0.530772 -0.129330
v 0.102263 0.530768 -0.467092
v 0.345029 0.530772 -0.367988
v 0.069767 0.530775 -0.454770
v -0.207711 0.530771 0.248729
v 0.069767 0.530772 0.346804
v 0.490912 0.530772 0.004487
v 0.518922 0.530772 -0.063183
v 0.102264 0.530772 0.357460
v 0.399592 0.530772 0.224358
v 0.345029 0.530772 0.249506
v -0.339694 0.530771 -0.046760
v -0.209841 0.530769 -0.342161
v 0.399595 0.615825 -0.345757
v 0.490915 0.571659 -0.129330
v 0.102265 0.592266 -0.467093
v 0.345032 0.615826 -0.367988
v 0.069769 0.592273 -0.454771
v 0.490915 0.571659 0.004487
v 0.518925 0.571658 -0.063184
v 0.069770 0.571658 0.346804
v 0.102267 0.571658 0.357459
v 0.399595 0.606656 0.224358
v 0.345032 0.606657 0.249505
v 0.340530 0.615825 -0.285958
v 0.419378 0.571659 -0.099091
v 0.101216 0.592266 -0.383633
v 0.315703 0.615826 -0.296073
v 0.098048 0.592273 -0.382432
v 0.419172 0.571658 -0.025260
v 0.434728 0.571658 -0.062842
v 0.094813 0.571658 0.273281
v 0.098042 0.571658 0.274340
v 0.339514 0.606656 0.166531
v 0.312997 0.606657 0.178752
v 0.126349 0.655109 -0.448383
v 0.317731 0.655113 -0.370255
v 0.125522 0.655109 -0.382589
v 0.294609 0.655113 -0.313562
v 0.503981 0.617300 -0.070362
v 0.483877 0.617301 -0.117835
v 0.443552 0.617300 -0.070116
v 0.432535 0.617301 -0.096133
vt 0.969343 0.631284
vt 0.962025 0.658102
vt 0.959807 0.626507
vt 0.971851 0.677789
vt 0.967259 0.680560
vt 0.888810 0.692025
vt 0.891974 0.670498
vt 0.893793 0.694770
vt 0.890443 0.670623
vt 0.887234 0.639338
vt 0.868375 0.532666
vt 0.884515 0.569832
vt 0.854945 0.636611
vt 0.826057 0.710520
vt 0.826238 0.714680
vt 0.818382 0.711955
vt 0.825608 0.688654
vt 0.827397 0.658900
vt 0.828819 0.659475
vt 0.969317 0.619295
vt 0.961904 0.604281
vt 0.969846 0.603402
vt 0.834751 0.637484
vt 0.786839 0.678512
vt 0.791781 0.636611
vt 0.919307 0.600571
vt 0.927557 0.629243
vt 0.930807 0.667193
vt 0.930807 0.704120
vt 0.932400 0.672182
vt 0.935285 0.705848
vt 0.930807 0.626645
vt 0.932246 0.600571
vt 0.820617 0.689746
vt 0.788659 0.712471
vt 0.969154 0.624148
vt 0.969960 0.654479
vt 0.970307 0.658821
vt 0.888605 0.694461
vt 0.815504 0.633243
vt 0.788472 0.594422
vt 0.786839 0.549338
vt 0.824119 0.526406
vt 0.884515 0.607950
vt 0.825249 0.692019
vt 0.911643 0.460853
vt 0.906403 0.294782
vt 0.954843 0.415444
vt 0.868242 0.636864
vt 0.871063 0.636611
vt 0.871097 0.636864
vt 0.829873 0.689194
vt 0.892143 0.550836
vt 0.904963 0.528105
vt 0.909676 0.533757
vt 0.883354 0.655456
vt 0.883353 0.674090
vt 0.879013 0.673803
vt 0.887343 0.686970
vt 0.885981 0.692315
vt 0.884515 0.687260
vt 0.881337 0.655456
vt 0.883673 0.651716
vt 0.884053 0.654514
vt 0.831955 0.711265
vt 0.832136 0.715425
vt 0.843151 0.662909
vt 0.837438 0.661288
vt 0.843336 0.660886
vt 0.879014 0.674033
vt 0.891663 0.575771
vt 0.885122 0.547432
vt 0.975858 0.653542
vt 0.975671 0.658654
vt 0.873427 0.657121
vt 0.878690 0.664503
vt 0.873427 0.664862
vt 0.905909 0.600571
vt 0.884515 0.578969
vt 0.846666 0.656396
vt 0.853748 0.636624
vt 0.853748 0.659536
vt 0.840671 0.643683
vt 0.835115 0.639630
vt 0.839533 0.636611
vt 0.933554 0.592524
vt 0.933435 0.600104
vt 0.933245 0.592536
vt 0.860836 0.639787
vt 0.853748 0.643750
vt 0.853753 0.636611
vt 0.861044 0.642001
vt 0.866034 0.636611
vt 0.868128 0.639082
vt 0.860836 0.663971
vt 0.860833 0.643751
vt 0.972207 0.619205
vt 0.975363 0.623887
vt 0.972044 0.624058
vt 0.868128 0.664997
vt 0.861043 0.664950
vt 0.934029 0.534065
vt 0.931549 0.526406
vt 0.937027 0.526595
vt 0.849946 0.663596
vt 0.844936 0.658244
vt 0.908678 0.592951
vt 0.829513 0.692558
vt 0.972234 0.631193
vt 0.975324 0.654311
vt 0.879013 0.638359
vt 0.880958 0.652658
vt 0.844936 0.686348
vt 0.841811 0.682731
vt 0.844646 0.682538
vt 0.837252 0.663312
vt 0.868128 0.659782
vt 0.873427 0.659782
vt 0.974741 0.677698
vt 0.844936 0.643392
vt 0.873427 0.654413
vt 0.879013 0.636613
vt 0.879013 0.656762
vt 0.851171 0.671165
vt 0.848244 0.664354
vt 0.851171 0.663596
vt 0.834751 0.709221
vt 0.834751 0.658996
vt 0.836012 0.645205
vt 0.870254 0.665217
vt 0.872832 0.659786
vt 0.872832 0.665219
vt 0.842100 0.686541
vt 0.838515 0.683814
vt 0.837936 0.689352
vt 0.838723 0.686549
vt 0.848244 0.663596
vt 0.844936 0.670094
vt 0.844936 0.664662
vt 0.959733 0.354116
vt 0.959745 0.410197
vt 0.912519 0.460818
vt 0.842037 0.462092
vt 0.793768 0.413355
vt 0.795131 0.342620
vt 0.844868 0.294169
vt 0.845532 0.293553
vt 0.913955 0.295043
vt 0.952253 0.335331
vt 0.959745 0.343231
vt 0.868208 0.636611
vt 0.883354 0.674320
vt 0.970494 0.653709
vt 0.878690 0.656762
vt 0.846663 0.636611
vt 0.936604 0.599978
vt 0.860836 0.641756
vt 0.853752 0.666933
vt 0.975479 0.620404
vt 0.931367 0.533973
vt 0.884053 0.636611
vt 0.975858 0.603215
vt 0.885777 0.694751
vt 0.873427 0.636611
vt 0.848244 0.670321
vt 0.834113 0.694636
vt 0.868128 0.659782
vt 0.841005 0.690447
vt 0.848244 0.671165
vn 0.9218 -0.0604 0.3829
vn 0.4014 0.1554 0.9026
vn -0.3115 0.3554 0.8813
vn -0.8171 0.4463 0.3650
vn 0.0000 -1.0000 0.0000
vn 0.3768 -0.0536 -0.9248
vn -0.3518 0.3366 -0.8735
vn 0.9106 -0.1520 -0.3842
vn -0.8498 0.3719 -0.3736
vn -0.4027 0.2735 -0.8735
vn -0.8848 0.3603 -0.2955
vn -0.8159 0.3527 0.4582
vn -0.5530 0.3252 0.7671
vn 0.3516 0.3195 0.8800
vn 0.8309 0.2554 0.4943
vn 0.8272 0.2411 -0.5076
vn 0.4043 0.1187 -0.9069
vn 0.9100 -0.1527 -0.3854
vn 0.9223 -0.0599 0.3818
vn 0.4133 0.1589 0.8966
vn -0.2905 0.3614 0.8860
vn 0.3774 -0.0534 -0.9245
vn -0.3495 0.1682 -0.9217
vn -0.3240 0.3099 -0.8939
vn -0.8372 0.4023 -0.3704
vn -0.8347 0.4082 0.3697
vn -0.2762 0.4680 0.8394
vn 0.4074 0.3562 0.8409
vn 0.8661 0.3740 0.3317
vn 0.9223 0.1037 -0.3724
vn 0.3980 0.1135 -0.9104
vn 0.0000 1.0000 -0.0000
vn 0.3116 -0.0000 -0.9502
vn -0.3736 0.0000 -0.9276
vn 0.3736 -0.0000 0.9276
vn -0.9466 0.0001 -0.3224
vn -0.9240 0.0001 -0.3825
vn 0.3773 -0.0000 -0.9261
vn -0.3773 0.0000 0.9261
vn 0.3546 -0.0000 0.9350
vn 0.9110 -0.0000 -0.4125
vn -0.6935 0.0000 0.7205
vn 0.1419 0.9799 0.1401
vn -0.9325 0.3609 -0.0117
vn 0.0019 1.0000 -0.0008
vn 0.0636 0.9861 -0.1535
vn 0.8954 0.2335 -0.3792
vn -0.1341 0.9891 0.0607
vn -0.1545 0.9766 0.1497
vn 0.3780 -0.0000 -0.9258
vn 0.9235 -0.0000 0.3836
vn -0.9235 0.0001 -0.3836
vn 0.9208 -0.0001 -0.3899
vn 0.9240 -0.0001 0.3825
vn -0.9208 0.0001 0.3899
vn -0.9213 0.0000 0.3888
vn 0.9213 -0.0001 -0.3888
vn -0.3116 0.0000 0.9502
vn -0.4063 0.0000 -0.9137
vn -0.3545 0.0000 -0.9350
vn 0.4063 -0.0000 0.9137
vn -0.3779 0.0000 0.9258
vn 0.7709 0.5539 0.3144
vn 0.3546 0.1937 -0.9147
vn -0.3748 0.1297 0.9180
vn -0.8954 0.2335 0.3792
vn 0.0040 0.1566 0.9876
vn -0.3837 0.1695 -0.9078
vn 0.0011 1.0000 -0.0028
vn 0.0000 1.0000 0.0001
vn -0.3573 0.1661 -0.9191
vn 0.3545 -0.0000 0.9350
vn 0.0828 0.9771 0.1960
vn 0.0002 1.0000 0.0000
vn 0.1081 0.9878 -0.1123
vn -0.1396 0.9902 0.0071
vn -0.2076 0.9748 0.0812
vn 0.3779 -0.0000 -0.9258
vn 0.9235 -0.0001 0.3836
vn -0.9235 0.0000 -0.3836
vn -0.9213 0.0001 0.3888
vn 0.9213 -0.0000 -0.3888
vn -0.3546 0.0000 -0.9350
vn -0.3780 0.0000 0.9258
vn 0.3748 0.1297 -0.9180
vn -0.3889 0.1923 0.9010
usemtl Evergreen
s off
f 37/1/1 25/2/1 24/3/1
f 25/2/2 39/4/2 26/5/2
f 36/6/3 27/7/3 26/8/3
f 27/7/4 35/9/4 42/10/4
f 6/11/5 8/12/5 11/13/5
f 33/14/6 30/15/6 23/16/6
f 34/17/7 29/18/7 43/19/7
f 31/20/8 23/21/8 30/22/8
f 42/23/9 43/19/9 29/18/9
f 29/18/10 1/24/10 11/25/10
f 42/10/11 11/26/11 10/27/11
f 27/7/12 10/27/12 8/28/12
f 6/29/13 27/7/13 8/28/13
f 4/30/14 26/5/14 6/31/14
f 3/32/15 25/2/15 4/30/15
f 2/33/16 24/3/16 3/32/16
f 22/34/17 2/35/17 1/24/17
f 24/3/18 31/20/18 38/36/18
f 24/3/19 38/36/19 37/1/19
f 25/2/20 40/37/20 41/38/20
f 26/8/21 39/39/21 36/6/21
f 11/13/5 1/40/5 2/41/5
f 2/41/5 3/42/5 4/43/5
f 4/43/5 6/11/5 11/13/5
f 8/12/5 10/44/5 11/13/5
f 11/13/5 2/41/5 4/43/5
f 33/14/22 22/34/22 32/45/22
f 34/17/23 32/45/23 22/34/23
f 29/18/24 22/34/24 1/24/24
f 42/23/25 29/18/25 11/25/25
f 27/7/26 42/10/26 10/27/26
f 6/29/27 26/8/27 27/7/27
f 4/30/28 25/2/28 26/5/28
f 3/32/29 24/3/29 25/2/29
f 2/33/30 23/21/30 24/3/30
f 22/34/31 23/16/31 2/35/31
f 20/46/32 13/47/32 19/48/32
f 16/49/33 62/50/33 63/51/33
f 34/17/34 43/19/34 48/52/34
f 12/53/32 36/54/32 15/55/32
f 5/56/35 20/57/35 59/58/35
f 15/59/36 51/60/36 62/61/36
f 18/62/37 60/63/37 61/64/37
f 30/15/38 47/65/38 44/66/38
f 7/67/39 58/68/39 19/69/39
f 20/57/40 57/70/40 59/58/40
f 28/71/32 35/72/32 12/53/32
f 41/38/41 65/73/41 54/74/41
f 40/75/42 64/76/42 14/77/42
f 28/71/32 43/78/32 42/79/32
f 55/80/43 45/81/43 44/82/43
f 57/83/44 66/84/44 46/85/44
f 57/86/45 48/87/45 59/88/45
f 61/89/32 49/90/32 50/91/32
f 63/92/32 51/93/32 52/94/32
f 64/95/46 49/90/46 60/96/46
f 45/97/47 70/98/47 50/99/47
f 63/92/48 54/100/48 65/101/48
f 14/102/32 41/103/32 40/104/32
f 55/80/32 47/105/32 58/106/32
f 5/107/49 48/87/49 43/78/49
f 33/14/50 46/108/50 47/65/50
f 40/37/51 49/109/51 53/110/51
f 14/111/52 60/63/52 17/112/52
f 38/36/53 45/97/53 50/99/53
f 38/36/54 49/109/54 37/1/54
f 18/113/55 56/114/55 21/115/55
f 7/67/56 56/114/56 55/116/56
f 30/22/57 45/97/57 31/20/57
f 39/39/58 51/60/58 36/6/58
f 13/117/59 63/51/59 65/118/59
f 34/17/60 46/108/60 32/45/60
f 41/38/61 52/119/61 39/4/61
f 19/69/62 57/83/62 9/120/62
f 68/121/32 67/122/32 66/123/32
f 47/124/63 69/125/63 58/126/63
f 46/108/64 67/127/64 47/65/64
f 57/83/65 69/128/65 68/129/65
f 72/130/32 71/131/32 73/132/32
f 61/133/66 73/134/66 56/114/66
f 61/133/67 70/135/67 72/136/67
f 45/137/68 73/138/68 71/139/68
f 21/140/32 7/141/32 19/48/32
f 19/48/69 9/142/69 20/46/69
f 20/46/32 5/143/32 13/47/32
f 28/144/32 12/145/32 5/143/32
f 15/146/70 16/147/70 13/47/70
f 13/47/32 14/148/32 17/149/32
f 17/149/32 18/150/32 21/140/32
f 21/140/32 19/48/32 17/149/32
f 5/143/32 12/145/32 15/146/32
f 15/146/32 13/47/32 5/143/32
f 17/149/32 19/48/32 13/47/32
f 37/1/1 40/37/1 25/2/1
f 25/2/2 41/38/2 39/4/2
f 36/6/3 35/9/3 27/7/3
f 34/17/71 22/34/71 29/18/71
f 31/20/8 24/3/8 23/21/8
f 33/14/22 23/16/22 22/34/22
f 16/49/33 15/151/33 62/50/33
f 12/53/32 35/72/32 36/54/32
f 15/59/36 36/6/36 51/60/36
f 18/62/37 17/112/37 60/63/37
f 30/15/38 33/14/38 47/65/38
f 7/67/39 55/116/39 58/68/39
f 20/57/72 9/152/72 57/70/72
f 28/71/32 42/79/32 35/72/32
f 41/38/41 13/153/41 65/73/41
f 40/75/42 53/154/42 64/76/42
f 28/71/32 5/107/32 43/78/32
f 55/80/73 56/155/73 45/81/73
f 57/83/44 68/129/44 66/84/44
f 57/86/74 46/156/74 48/87/74
f 61/89/32 60/96/32 49/90/32
f 63/92/32 62/157/32 51/93/32
f 64/95/75 53/158/75 49/90/75
f 45/97/47 71/159/47 70/98/47
f 63/92/76 52/94/76 54/100/76
f 14/102/32 13/160/32 41/103/32
f 55/80/32 44/82/32 47/105/32
f 5/107/77 59/88/77 48/87/77
f 33/14/78 32/45/78 46/108/78
f 40/37/79 37/1/79 49/109/79
f 14/111/80 64/161/80 60/63/80
f 38/36/53 31/20/53 45/97/53
f 38/36/54 50/99/54 49/109/54
f 18/113/55 61/133/55 56/114/55
f 7/67/81 21/115/81 56/114/81
f 30/22/82 44/162/82 45/97/82
f 39/39/58 52/163/58 51/60/58
f 13/117/59 16/49/59 63/51/59
f 34/17/83 48/52/83 46/108/83
f 41/38/61 54/74/61 52/119/61
f 19/69/84 58/68/84 57/83/84
f 68/121/32 69/164/32 67/122/32
f 47/124/63 67/165/63 69/125/63
f 46/108/85 66/166/85 67/127/85
f 57/83/86 58/68/86 69/128/86
f 72/130/32 70/167/32 71/131/32
f 61/133/66 72/136/66 73/134/66
f 61/133/67 50/168/67 70/135/67
f 45/137/68 56/169/68 73/138/68
